<svg xmlns="http://www.w3.org/2000/svg" xml:space="preserve" viewBox="0 0 512 512">
  <path d="M430.658 10.18a11.508 11.508 0 0 0-12.989 0c-3.152 2.156-73.591 51.085-80.754 118.719-26.826-3.351-53.985-5.046-80.914-5.046s-54.089 1.696-80.914 5.046C167.922 61.265 97.483 12.336 94.331 10.18a11.508 11.508 0 0 0-12.989 0C78.021 12.452 0 66.652 0 139.944c0 36.711 23.454 84.833 59.062 102.877a54173.6 54173.6 0 0 1 10.965 120.731c6.237 64.139 63.634 121.31 139.579 139.03a47.382 47.382 0 0 0 10.772 1.246c10.5 0 20.756-3.529 29.211-10.238a47.998 47.998 0 0 0 6.413-6.134 47.892 47.892 0 0 0 6.41 6.131c11.339 8.998 25.911 12.277 39.98 8.993 29.087-6.786 56.445-19.665 79.109-37.244 35.272-27.341 56.748-63.489 60.479-101.87 3.485-38.865 7.169-79.421 10.957-120.645C488.546 224.775 512 176.653 512 139.944c0-73.292-78.021-127.492-81.342-129.764zm-172.23 392.178c-22.391 0-37.995-11.003-37.995-20.878s15.604-20.878 37.995-20.878 37.996 11.003 37.996 20.878-15.604 20.878-37.996 20.878zM437.99 224.317a11.504 11.504 0 0 0-7.348 9.692 55521.674 55521.674 0 0 0-11.572 127.316c-3.104 31.926-21.453 62.406-51.669 85.828-20.068 15.564-44.355 26.982-70.238 33.021-7.19 1.679-14.644-.003-20.45-4.61-5.852-4.644-9.208-11.589-9.208-19.053v-31.609c29.755-3.066 51.929-21.034 51.929-43.42 0-24.61-26.797-43.887-61.005-43.887s-61.004 19.277-61.004 43.887c0 21.148 19.796 38.346 47.072 42.77v32.26c0 7.465-3.356 14.411-9.21 19.055-5.806 4.608-13.262 6.287-20.451 4.61-66.483-15.515-116.612-64.388-121.9-118.766a54559.774 54559.774 0 0 0-11.578-127.403 11.506 11.506 0 0 0-7.348-9.692c-29.19-11.161-51.001-53.75-51.001-84.374 0-49.957 47.235-91.968 64.827-105.88 17.603 13.921 64.827 55.929 64.827 105.88 0 .579-.008 1.162-.023 1.748a11.502 11.502 0 0 0 13.15 11.679 631.34 631.34 0 0 1 90.21-6.507 631.36 631.36 0 0 1 90.21 6.507 11.495 11.495 0 0 0 9.289-2.783 11.5 11.5 0 0 0 3.861-8.896 68.28 68.28 0 0 1-.023-1.748c0-49.965 47.252-91.984 64.837-105.889 17.6 13.875 64.816 55.773 64.816 105.889 0 30.625-21.81 73.214-51 84.375z"/>
  <circle cx="181.166" cy="289.413" r="11.505"/>
  <circle cx="329.209" cy="289.413" r="11.505"/>
  <path d="M411.445 163.417c-5.294 3.433-6.838 10.499-3.443 15.832a11.493 11.493 0 0 0 9.715 5.327c2.115 0 4.254-.582 6.169-1.803.449-.286.909-.605 1.377-.958 5.076-3.823 6.088-11.034 2.266-16.11-3.817-5.066-11.012-6.085-16.084-2.288zm22.434-55.95c-3.439-5.342-10.558-6.884-15.902-3.446-5.343 3.44-6.884 10.559-3.446 15.902 3.221 5.002 5.492 9.613 6.751 13.706 1.521 4.947 6.073 8.126 10.993 8.126 1.119 0 2.26-.164 3.385-.511 6.073-1.867 9.483-8.304 7.615-14.378-1.875-6.101-5.037-12.628-9.396-19.399zm-333.322 55.951c-3.46-2.656-10.931-15.915-10.931-23.474 0-4.884 2.891-12.184 7.931-20.029 3.434-5.345 1.886-12.463-3.459-15.898-5.346-3.434-12.463-1.886-15.898 3.459-7.686 11.961-11.583 22.886-11.583 32.468 0 15.414 12.02 36.79 21.496 42.828a11.446 11.446 0 0 0 6.172 1.804c3.8 0 7.519-1.881 9.712-5.323 3.398-5.332 1.854-12.4-3.44-15.835z"/>
</svg>
